<?xml version="1.0" encoding="UTF-8" standalone="no"?>
<!-- Created with Inkscape (http://www.inkscape.org/) -->

<svg
   xmlns:dc="http://purl.org/dc/elements/1.1/"
   xmlns:cc="http://creativecommons.org/ns#"
   xmlns:rdf="http://www.w3.org/1999/02/22-rdf-syntax-ns#"
   xmlns:svg="http://www.w3.org/2000/svg"
   xmlns="http://www.w3.org/2000/svg"
   xmlns:sodipodi="http://sodipodi.sourceforge.net/DTD/sodipodi-0.dtd"
   xmlns:inkscape="http://www.inkscape.org/namespaces/inkscape"
   id="svg2"
   version="1.1"
   inkscape:version="0.48.4 r9939"
   width="1000"
   height="1000"
   xml:space="preserve"
   sodipodi:docname="RallyTIC.png"><metadata
     id="metadata8"><rdf:RDF><cc:Work
         rdf:about=""><dc:format>image/svg+xml</dc:format><dc:type
           rdf:resource="http://purl.org/dc/dcmitype/StillImage" /><dc:title></dc:title></cc:Work></rdf:RDF></metadata><defs
     id="defs6"><clipPath
       clipPathUnits="userSpaceOnUse"
       id="clipPath18"><path
         d="M 0,800 800,800 800,0 0,0 0,800 z"
         id="path20" /></clipPath><clipPath
       clipPathUnits="userSpaceOnUse"
       id="clipPath146"><path
         d="m 48.668,756.546 725.675,0 0,-627.918 -725.675,0 0,627.918 z"
         id="path148" /></clipPath><clipPath
       clipPathUnits="userSpaceOnUse"
       id="clipPath150"><path
         d="m 48.668,756.546 725.675,0 0,-627.918 -725.675,0 0,627.918 z"
         id="path152" /></clipPath><clipPath
       clipPathUnits="userSpaceOnUse"
       id="clipPath650"><path
         d="M 0,800 800,800 800,0 0,0 0,800 z"
         id="path652" /></clipPath><clipPath
       clipPathUnits="userSpaceOnUse"
       id="clipPath716"><path
         d="M 0,800 800,800 800,0 0,0 0,800 z"
         id="path718" /></clipPath></defs><sodipodi:namedview
     pagecolor="#ffffff"
     bordercolor="#666666"
     borderopacity="1"
     objecttolerance="10"
     gridtolerance="10"
     guidetolerance="10"
     inkscape:pageopacity="0"
     inkscape:pageshadow="2"
     inkscape:window-width="1366"
     inkscape:window-height="744"
     id="namedview4"
     showgrid="false"
     inkscape:zoom="0.94269737"
     inkscape:cx="521.98766"
     inkscape:cy="772.3681"
     inkscape:window-x="0"
     inkscape:window-y="24"
     inkscape:window-maximized="1"
     inkscape:current-layer="g10" /><g
     id="g10"
     inkscape:groupmode="layer"
     inkscape:label="18"
     transform="matrix(1.25,0,0,-1.25,0,1000)"><path
       d="m 0.06444771,-1.0475536 799.74875229,0 0,802.4731636 -799.74875229,0 0,-802.4731636 z"
       style="fill:#41aeb5;fill-opacity:1;fill-rule:nonzero;stroke:none"
       id="path12"
       inkscape:connector-curvature="0" /><g
       id="g630"
       transform="matrix(1.3903659,0,0,1.4504543,520.36543,255.29684)"><path
         d="m 0,0 -97.866,12.691 10.897,-149.368 163.043,-33.742 0.019,0.007 L 0.01,0 0,0 z"
         style="fill:#f6b917;fill-opacity:1;fill-rule:nonzero;stroke:none"
         id="path632"
         inkscape:connector-curvature="0" /></g><g
       id="g634"
       transform="matrix(1.3903659,0,0,1.4504543,622.90492,273.8042)"><path
         d="M 0,0 -73.74,-12.76 2.343,-183.172 114.68,-149.264 0,0 z"
         style="fill:#e1aa25;fill-opacity:1;fill-rule:nonzero;stroke:none"
         id="path636"
         inkscape:connector-curvature="0" /></g><g
       id="g638"
       transform="matrix(1.3903659,0,0,1.4504543,144.24016,273.8042)"><path
         d="M 0,0 -93.526,-149.264 44.464,-182.637 88.1,-12.563 0,0 z"
         style="fill:#fbba17;fill-opacity:1;fill-rule:nonzero;stroke:none"
         id="path640"
         inkscape:connector-curvature="0" /></g><g
       id="g642"
       transform="matrix(1.3903659,0,0,1.4504543,383.57052,273.8042)"><path
         d="m 0,0 -82.649,-12.76 -1.386,0.197 -43.635,-170.074 2.24,-0.542 136.009,33.915 0.84,-0.173 L 0.521,-0.068 0,0 z"
         style="fill:#dfa926;fill-opacity:1;fill-rule:nonzero;stroke:none"
         id="path644"
         inkscape:connector-curvature="0" /></g><g
       id="g646"
       transform="matrix(1.3903659,0,0,1.4504543,-171.88887,-127.85399)"><g
         id="g648"
         clip-path="url(#clipPath650)"><g
           id="g654"
           transform="translate(304.4058,208.835)"><path
             d="M 0,0 C -1.067,0.72 -1.899,1.449 -2.62,2.182 L -2.944,0.916 C -1.94,0.618 -0.892,0.338 0,0"
             style="fill:#f2efee;fill-opacity:1;fill-rule:nonzero;stroke:none"
             id="path656"
             inkscape:connector-curvature="0" /></g><g
           id="g658"
           transform="translate(342.1743,227.292)"><path
             d="m 0,0 c -0.351,2.342 3.739,3.849 1.097,6.127 -1.738,1.503 -3.528,2.687 -3.051,4.318 1.092,3.736 4.152,7.306 4.508,10.913 0.11,1.039 -0.726,1.638 -2.173,1.936 -6.994,1.427 -29.458,-4.638 -30.188,-4.368 -0.45,0.17 -0.946,0.324 -1.424,0.488 l -5.817,-22.672 c 3.383,-0.391 6.861,-0.94 7.562,-1.366 3.244,-2.039 -5.143,-6.841 2.422,-7.447 C -14.326,-13.085 1.168,-5.06 1.427,-1.478 1.509,-0.83 0.109,-0.594 0,0"
             style="fill:#f2efee;fill-opacity:1;fill-rule:nonzero;stroke:none"
             id="path660"
             inkscape:connector-curvature="0" /></g><g
           id="g662"
           transform="translate(259.6377,248.3164)"><path
             d="m 0,0 c -5.032,-1.332 -14.571,-2.919 -14.098,-5.189 0.458,-2.318 3.192,-2.274 9.303,-1.207 5.734,1.004 12.171,1.67 17.542,0.382 5.857,-1.398 0.05,-3.636 -4.101,-5.171 -6.035,-2.251 -10.162,-4.147 -13.778,-6.828 -3.117,-2.291 -5.382,-4.942 -1.802,-7.115 3.709,-2.254 13.554,-2.308 16.386,-4.362 2.981,-2.192 2.449,-5.266 9.416,-6.558 4.743,-0.88 10.127,0.089 15.658,-0.829 2.787,-0.461 5.126,-1.048 7.298,-1.688 l 0.324,1.265 c -2.586,2.622 -3.46,5.3 -5.889,7.81 -1.517,1.558 -6.835,5.581 3.046,5.685 1.261,0.009 3.698,-0.192 6.184,-0.477 L 51.305,-1.61 C 38.904,2.573 17.2,4.559 0,0"
             style="fill:#ffffff;fill-opacity:1;fill-rule:nonzero;stroke:none"
             id="path664"
             inkscape:connector-curvature="0" /></g><g
           id="g666"
           transform="translate(291.1284,200.5283)"><path
             d="m 0,0 c -8.189,-1.887 -24.959,-5.479 -24.559,-10.097 0.304,-3.7 11.397,-1.424 13.313,-4.306 1.558,-2.32 -5.709,-5.496 -6.672,-7.746 9.137,-0.907 15.4,-3.316 18.5,-6.633 L 8.52,2.157 C 6.559,1.271 3.575,0.816 0,0"
             style="fill:#ffffff;fill-opacity:1;fill-rule:nonzero;stroke:none"
             id="path668"
             inkscape:connector-curvature="0" /></g><g
           id="g670"
           transform="translate(296.2056,212.1309)"><path
             d="m 0,0 c 2.227,-1.004 3.918,-2.293 4.923,-3.674 l 0.623,2.427 C 3.242,-0.912 1.156,-0.521 0,0"
             style="fill:#f2efee;fill-opacity:1;fill-rule:nonzero;stroke:none"
             id="path672"
             inkscape:connector-curvature="0" /></g><g
           id="g674"
           transform="translate(362.0913,200.7539)"><path
             d="m 0,0 c -4.643,2.506 -11.893,4.612 -19.552,5.243 -7.499,0.611 -15.774,0.208 -22.697,1.563 -3.217,0.636 -5.867,1.515 -9.16,2.108 -2.246,0.407 -5.794,0.758 -8.93,1.216 l -0.624,-2.427 c 0.81,-1.121 1.211,-2.3 0.854,-3.47 -0.312,-1.053 -1.133,-1.758 -2.334,-2.301 l -7.938,-30.94 c 1.968,-2.105 2.694,-4.586 1.995,-7.302 -2.696,-10.504 2.601,-22.085 20.724,-28.893 1.704,2.39 3.615,4.881 4.674,7.396 4.023,9.515 1.33,17.489 17.318,24.604 6.709,2.986 5.586,4.145 5.508,7.804 -0.031,1.83 1.293,6.124 4.801,7.074 4.177,-0.856 12.789,-1.332 16.667,0.082 2.55,0.943 5.639,6.166 6.215,7.561 C 9.289,-6.431 5.771,-3.107 0,0"
             style="fill:#f2efee;fill-opacity:1;fill-rule:nonzero;stroke:none"
             id="path676"
             inkscape:connector-curvature="0" /></g><g
           id="g678"
           transform="translate(396.6973,222.9365)"><path
             d="m 0,0 c -19.297,-3.741 -24.853,-15.276 -14.126,-23.609 5.151,-4.002 14.767,-2.829 23.192,-1.1 L 7.128,1.846 C 5.064,1.19 2.867,0.552 0,0"
             style="fill:#f2efee;fill-opacity:1;fill-rule:nonzero;stroke:none"
             id="path680"
             inkscape:connector-curvature="0" /></g><g
           id="g682"
           transform="translate(495.3301,237.8867)"><path
             d="m 0,0 c -3.938,0.972 -4.438,4.359 -7.599,5.736 -4.109,1.812 -6.459,2.134 -12.958,2.465 0.545,0.399 0.361,1.389 1.033,1.84 -1.863,-0.229 -5.372,-0.009 -7.235,-0.236 -1.166,2.733 11.058,2.841 13.201,4.674 -5.373,0.149 -10.289,0.203 -14.616,-0.81 -3.504,-0.831 -3.804,-2.762 -7.2,-3.347 -8.682,-1.517 -31.385,3.564 -41.325,4.287 -7.115,0.521 -12.489,0.284 -16.782,-0.629 l 1.177,-16.121 c 2.561,-1.601 3.501,-3.949 5.297,-5.255 0.724,-0.13 1.459,-0.13 2.157,0 1.759,2.006 0.449,4.277 0.742,6.262 9.735,0.947 15.945,-4.286 18.694,-6.951 2.326,-2.256 6.435,-3.02 -3.696,-3.907 -5.493,-0.487 -9.581,-0.026 -13.495,1.616 -3.49,-0.891 -6.075,-1.832 -8.9,-2.728 l 1.939,-26.555 c 4.038,0.831 7.829,1.778 10.717,2.359 -0.038,-3.306 7.704,-6.683 10.688,-9.903 9.021,-9.648 4.827,-19.399 6.254,-30.523 0.291,-2.336 2.898,-11.48 9.749,-12.04 7.887,-0.65 12.443,10.2 13.593,12.63 4.677,9.72 2.619,19.222 12.207,27.323 3.582,3.048 10.773,5.545 6.098,9.249 -4.581,3.633 -22.678,4.334 -21.785,8.919 -0.226,-1.284 19.818,-8.044 24.045,-8.223 19.873,-0.832 -1.67,9.398 3.256,11.877 7.796,3.902 17.945,-5.945 19.186,-7.877 3.469,-5.4 2.632,-10.946 4.511,-16.714 0.804,-2.475 2.923,-13.053 13.778,-11.5 8.37,1.209 0.761,9.334 0.822,12.097 0.034,2.509 2.453,11.73 7.008,12.797 0.381,0.091 0.767,0.132 1.155,0.186 L 13.447,1.912 C 9.549,0.265 4.687,-1.144 0,0"
             style="fill:#ffffff;fill-opacity:1;fill-rule:nonzero;stroke:none"
             id="path684"
             inkscape:connector-curvature="0" /></g><g
           id="g686"
           transform="translate(567.1875,236.9082)"><path
             d="m 0,0 c -0.127,1.937 -2.747,4.166 -9.136,4.149 -1.9,2.329 -9.537,7.616 -17.157,8.774 -7.091,1.086 -6.528,-0.471 -10.865,-2.213 -4.859,-1.951 -11.589,-3.232 -15.68,-5.176 -1.405,-0.673 -3.324,-1.699 -5.572,-2.643 l 18.268,-40.914 c 9.531,1.348 20.084,-7.98 33.238,-7.773 0.698,4.752 -3.39,6.981 3.475,10.301 4.983,2.406 13.777,3.94 15.305,7.437 1.199,2.643 -1.203,7.89 -4.799,10.498 -6.658,4.857 -17.795,2.928 -29.926,4.039 -1.838,2.44 4.35,3.596 3.219,6.08 -0.533,1.219 -5.851,1.228 -6.133,2.755 -0.17,0.949 2.917,2.455 4.155,3.227 C -17.355,1.253 -10.209,2.891 0,0"
             style="fill:#e6e6e6;fill-opacity:1;fill-rule:nonzero;stroke:none"
             id="path688"
             inkscape:connector-curvature="0" /></g><g
           id="g690"
           transform="translate(391.4766,247.0381)"><path
             d="m 0,0 c -3.829,0.252 -8.35,0.678 -11.341,-0.372 2.272,-1.029 5.652,-1.523 9.513,-1.705 0.306,-0.478 0.353,-1.054 0.044,-1.538 -3.229,-0.246 -11.452,-2.092 -13.447,-2.745 -4.357,-1.428 -4.999,-1.999 -5.957,-4.158 -0.411,-1.125 -0.785,-2.522 -0.647,-3.916 0.29,-2.644 2.506,-5.258 9.536,-5.858 4.564,-0.378 9.689,0.345 12.409,2.121 3.762,2.484 -6.837,8.88 4.808,8.581 3.111,-0.083 5.14,-0.767 6.632,-1.702 L 10.372,4.829 C 6.041,3.901 2.787,2.272 0,0"
             style="fill:#f2efee;fill-opacity:1;fill-rule:nonzero;stroke:none"
             id="path692"
             inkscape:connector-curvature="0" /></g><g
           id="g694"
           transform="translate(553.916,156.2402)"><path
             d="m 0,0 c -6.469,10.231 4.106,21.466 22.861,24.446 -1.924,-1.89 -5.158,-7.822 5.576,-6.33 2.537,0.348 7.09,5.456 9.23,6.463 C 38.028,18.47 43.073,14.745 49.098,8.4 50.801,6.609 57.087,1.263 55.512,-0.461 52.889,-3.265 46.657,-2.374 43.279,1.029 26.917,2.702 26.741,-9.073 9.969,-7.605 -3.776,-6.408 -1.3,10.633 1.516,14.875"
             style="fill:#e6e6e6;fill-opacity:1;fill-rule:nonzero;stroke:none"
             id="path696"
             inkscape:connector-curvature="0" /></g></g></g><path
       d="m 262.46554,106.22814 -13.82858,0 0,115.40684 13.82858,0 0,-115.40684 z"
       style="fill:#69462c;fill-opacity:1;fill-rule:nonzero;stroke:none"
       id="path698"
       inkscape:connector-curvature="0" /><g
       id="g700"
       transform="matrix(1.3903659,0,0,1.4504543,317.92848,192.94051)"><path
         d="m 0,0 19.784,19.784 -34.088,0 0,-19.784 0,-20 34.088,0 L -0.107,-0.108 0,0 z"
         style="fill:#e32f26;fill-opacity:1;fill-rule:nonzero;stroke:none"
         id="path702"
         inkscape:connector-curvature="0" /></g><g
       id="g704"
       transform="matrix(1.3903659,0,0,1.4504543,269.38108,221.63587)"><path
         d="m 0,0 0,-19.784 0,-19.999 20.613,0 0,19.999 L 20.613,0 0,0 z"
         style="fill:#ce2a27;fill-opacity:1;fill-rule:nonzero;stroke:none"
         id="path706"
         inkscape:connector-curvature="0" /></g><g
       id="g712"
       transform="matrix(1,0,0,1.0633036,-39.202323,37.855025)"><g
         id="g714"
         clip-path="url(#clipPath716)"
         transform="translate(-4.9650955,37.610787)"><g
           id="g816"
           transform="matrix(1.3903659,0,0,1.3641017,715.52701,285.25405)"><path
             d="M 0,0 0,0 0.006,0.025 0,0 z"
             style="fill:#000000;fill-opacity:1;fill-rule:nonzero;stroke:none"
             id="path818"
             inkscape:connector-curvature="0" /></g><g
           id="g832"
           transform="matrix(1.3903659,0,0,1.3641017,773.12666,332.77649)"><path
             d="M 0,0 -0.042,-0.001 0.107,-0.388 0,0 z"
             style="fill:#8e498f;fill-opacity:1;fill-rule:nonzero;stroke:none"
             id="path834"
             inkscape:connector-curvature="0" /></g><g
           id="g860"
           transform="matrix(1.3903659,0,0,1.3641017,747.9616,345.39443)"><path
             d="M 0,0 C 0.072,-0.297 0.126,-0.49 0.126,-0.49 0.126,-0.49 0.134,0.064 0,0"
             style="fill:#f7ba17;fill-opacity:1;fill-rule:nonzero;stroke:none"
             id="path862"
             inkscape:connector-curvature="0" /></g><g
           id="g1056"
           transform="translate(644.4902,750.9995)" /><g
           id="g1080"
           transform="matrix(1.3903659,0,0,1.3641017,577.04169,455.17651)"><path
             d="m 0,0 c 0,59.331 -47.872,107.474 -107.098,107.928 l 0,-215.856 C -47.872,-107.475 0,-59.332 0,0"
             style="fill:#ffffff;fill-opacity:1;fill-rule:nonzero;stroke:none"
             id="path1082"
             inkscape:connector-curvature="0" /></g><g
           id="g1084"
           transform="matrix(1.3903659,0,0,1.3641017,426.96768,602.41559)"><path
             d="m 0,0 c -59.613,0 -107.938,-48.326 -107.938,-107.938 0,-59.614 48.325,-107.939 107.938,-107.939 0.281,0 0.561,0.008 0.841,0.011 l 0,215.855 C 0.561,-0.009 0.281,0 0,0"
             style="fill:#eff0f0;fill-opacity:1;fill-rule:nonzero;stroke:none"
             id="path1086"
             inkscape:connector-curvature="0" /></g><g
           id="g1088"
           transform="matrix(1.3903659,0,0,1.3641017,282.28815,452.82929)"><path
             d="m 0,0 c 0,58.041 46.976,105.105 104.974,105.287 l 0,52.665 C 17.901,157.771 -52.655,87.105 -52.655,0 c 0,-85.207 150.638,-255.058 157.629,-262.907 l 0,157.61 C 46.976,-105.11 0,-58.049 0,0"
             style="fill:#ce2a27;fill-opacity:1;fill-rule:nonzero;stroke:none"
             id="path1090"
             inkscape:connector-curvature="0" /></g><g
           id="g1092"
           transform="matrix(1.3903659,0,0,1.3641017,648.33729,452.82929)"><path
             d="m 0,0 c 0,87.223 -70.734,157.958 -157.966,157.958 -0.113,0 -0.223,-0.006 -0.336,-0.006 l 0,-52.665 c 0.113,0 0.223,0.018 0.336,0.018 58.159,0 105.312,-47.152 105.312,-105.305 0,-58.166 -47.153,-105.313 -105.312,-105.313 -0.113,0 -0.223,0.016 -0.336,0.016 l 0,-157.61 0.336,-0.373 C -157.966,-263.28 0,-87.23 0,0"
             style="fill:#e32f26;fill-opacity:1;fill-rule:nonzero;stroke:none"
             id="path1094"
             inkscape:connector-curvature="0" /></g><g
           id="g1096"
           transform="matrix(1.3903659,0,0,1.3641017,428.70703,524.6532)"><path
             d="m 0,0 c -0.113,0 -0.224,-0.019 -0.336,-0.019 l 0,-105.275 c 0.112,0 0.223,-0.02 0.336,-0.02 29.068,0 52.656,23.584 52.656,52.661 C 52.656,-23.59 29.068,0 0,0"
             style="fill:#fbba17;fill-opacity:1;fill-rule:nonzero;stroke:none"
             id="path1098"
             inkscape:connector-curvature="0" /></g><g
           id="g1100"
           transform="matrix(1.3903659,0,0,1.3641017,355.49898,452.82929)"><path
             d="m 0,0 c 0,-28.965 23.403,-52.454 52.318,-52.642 l 0,105.276 C 23.403,52.453 0,28.953 0,0"
             style="fill:#dfa926;fill-opacity:1;fill-rule:nonzero;stroke:none"
             id="path1102"
             inkscape:connector-curvature="0" /></g><g
           id="g1120"
           transform="matrix(1.3903659,0,0,1.3641017,41.841048,262.82754)"><path
             d="M 0,0 0,0 -0.004,0.026 0,0 z"
             style="fill:#000000;fill-opacity:1;fill-rule:nonzero;stroke:none"
             id="path1122"
             inkscape:connector-curvature="0" /></g></g></g><path
       style="fill:#3d8dbc;fill-opacity:1"
       d="m 0.55026921,399.95518 0,400.5228 399.49496079,0 399.49497,0 0,-400.5228 0,-400.52277005 -399.49497,0 -399.49496079,0 0,400.52277005 z M 303.27048,31.786591 398.74312,56.408679 512.45013,31.851722 626.15715,7.2947888 702.10159,31.176495 c 41.76945,13.134953 77.13321,24.416565 78.58614,25.070265 2.22058,0.999086 -9.79753,18.073551 -75.39251,107.11224 -42.91883,58.25805 -78.86586,107.15393 -79.88231,108.65753 -1.74468,2.58086 -4.72581,2.21171 -53.2817,-6.59794 l -51.43362,-9.33178 -31.42024,4.11923 c -17.28112,2.26557 -31.87984,4.53877 -32.4416,5.05152 -0.56175,0.51278 6.35429,11.0227 15.36897,23.35539 66.17736,90.53502 112.46541,174.84948 126.9216,231.18979 10.92112,42.56297 4.57477,95.08203 -16.99347,140.62948 -21.82116,46.08155 -56.48704,82.25334 -100.59541,104.96532 -51.99659,26.77375 -112.91536,30.80106 -168.36363,11.13044 -31.14103,-11.04748 -60.34646,-30.134 -84.22193,-55.04134 -41.06764,-42.84246 -63.70408,-98.75568 -64.10878,-158.35208 -0.15428,-22.71874 2.58299,-37.83849 11.62422,-64.20849 18.35331,-53.52996 57.54416,-122.52273 115.69788,-203.67801 17.39312,-24.27265 21.84307,-31.41705 19.9254,-31.99033 -1.358,-0.40597 -11.80793,-2.18922 -23.22207,-3.96279 l -20.75298,-3.22465 -62.13863,9.3091 c -34.17625,5.12001 -62.27179,9.13661 -62.43454,8.92583 C 139.47815,269.041 13.872755,57.700418 14.450258,57.097958 14.91028,56.618043 58.498426,45.256542 111.3128,31.850156 164.12717,18.44377 207.44219,7.4050703 207.56838,7.3197019 c 0.12615,-0.085404 43.19214,10.9247401 95.7021,24.4668891 l 0,0 z"
       id="path4166"
       inkscape:connector-curvature="0" /></g></svg>